<svg width="62" height="61" viewBox="0 0 62 61" fill="none" xmlns="http://www.w3.org/2000/svg">
    <path
        d="M31.0067 14.8604C22.4227 14.8604 15.4988 21.8431 15.4988 30.5C15.4988 39.1569 22.4227 46.1396 31.0067 46.1396C39.5908 46.1396 46.5147 39.1569 46.5147 30.5C46.5147 21.8431 39.5908 14.8604 31.0067 14.8604ZM31.0067 40.6678C25.4595 40.6678 20.9245 36.1079 20.9245 30.5C20.9245 24.8921 25.446 20.3322 31.0067 20.3322C36.5675 20.3322 41.089 24.8921 41.089 30.5C41.089 36.1079 36.554 40.6678 31.0067 40.6678V40.6678ZM50.7663 14.2206C50.7663 16.2487 49.1466 17.8685 47.1491 17.8685C45.138 17.8685 43.5319 16.2351 43.5319 14.2206C43.5319 12.2061 45.1515 10.5727 47.1491 10.5727C49.1466 10.5727 50.7663 12.2061 50.7663 14.2206ZM61.0374 17.923C60.808 13.0364 59.7012 8.70797 56.1515 5.14175C52.6153 1.57553 48.3233 0.459389 43.4779 0.214381C38.4841 -0.0714604 23.516 -0.0714604 18.5221 0.214381C13.6902 0.445777 9.39816 1.56192 5.84847 5.12814C2.29877 8.69436 1.20552 13.0228 0.962577 17.9094C0.679141 22.9456 0.679141 38.0408 0.962577 43.077C1.19202 47.9636 2.29877 52.292 5.84847 55.8583C9.39816 59.4245 13.6767 60.5406 18.5221 60.7856C23.516 61.0715 38.4841 61.0715 43.4779 60.7856C48.3233 60.5542 52.6153 59.4381 56.1515 55.8583C59.6877 52.292 60.7945 47.9636 61.0374 43.077C61.3209 38.0408 61.3209 22.9592 61.0374 17.923V17.923ZM54.5859 48.4808C53.5331 51.1487 51.4951 53.204 48.8362 54.2793C44.8546 55.8719 35.4067 55.5044 31.0067 55.5044C26.6067 55.5044 17.1454 55.8583 13.1773 54.2793C10.5319 53.2176 8.49387 51.1623 7.42761 48.4808C5.84847 44.4654 6.21288 34.9374 6.21288 30.5C6.21288 26.0626 5.86196 16.521 7.42761 12.5192C8.48037 9.85133 10.5184 7.79599 13.1773 6.72068C17.1589 5.12814 26.6067 5.49565 31.0067 5.49565C35.4067 5.49565 44.8681 5.14175 48.8362 6.72068C51.4816 7.78238 53.5196 9.83772 54.5859 12.5192C56.165 16.5346 55.8006 26.0626 55.8006 30.5C55.8006 34.9374 56.165 44.479 54.5859 48.4808Z"
        fill="white" />
</svg>